<mxfile host="app.diagrams.net" modified="2023-05-02T10:32:44.310Z" agent="Mozilla/5.0 (Windows NT 10.0; Win64; x64) AppleWebKit/537.36 (KHTML, like Gecko) Chrome/112.0.0.0 Safari/537.36" etag="ruhKIhhozjV-G5OysBwJ" version="21.1.8">
  <diagram name="Page-1" id="ivi_GzzBbnTKShinMN6c">
    <mxGraphModel dx="2019" dy="639" grid="1" gridSize="10" guides="1" tooltips="1" connect="1" arrows="1" fold="1" page="1" pageScale="1" pageWidth="850" pageHeight="1100" math="0" shadow="0">
      <root>
        <mxCell id="0" />
        <mxCell id="1" parent="0" />
        <mxCell id="fI0UlLMCyQehsWo7p1q2-1" value="Igrao se" style="rhombus;whiteSpace=wrap;html=1;fillColor=#e1d5e7;strokeColor=#9673a6;" vertex="1" parent="1">
          <mxGeometry x="320" y="450" width="80" height="80" as="geometry" />
        </mxCell>
        <mxCell id="fI0UlLMCyQehsWo7p1q2-2" value="Turnir" style="rounded=0;whiteSpace=wrap;html=1;fillColor=#f8cecc;strokeColor=#b85450;" vertex="1" parent="1">
          <mxGeometry x="310" y="580" width="100" height="40" as="geometry" />
        </mxCell>
        <mxCell id="fI0UlLMCyQehsWo7p1q2-3" value="" style="endArrow=none;html=1;rounded=0;exitX=0.5;exitY=0;exitDx=0;exitDy=0;entryX=0.5;entryY=1;entryDx=0;entryDy=0;" edge="1" parent="1" source="fI0UlLMCyQehsWo7p1q2-2" target="fI0UlLMCyQehsWo7p1q2-1">
          <mxGeometry width="50" height="50" relative="1" as="geometry">
            <mxPoint x="310" y="510" as="sourcePoint" />
            <mxPoint x="360" y="460" as="targetPoint" />
          </mxGeometry>
        </mxCell>
        <mxCell id="fI0UlLMCyQehsWo7p1q2-4" value="Meč" style="rounded=0;whiteSpace=wrap;html=1;fillColor=#f8cecc;strokeColor=#b85450;" vertex="1" parent="1">
          <mxGeometry x="310" y="350" width="100" height="40" as="geometry" />
        </mxCell>
        <mxCell id="fI0UlLMCyQehsWo7p1q2-5" value="(1,N)" style="text;html=1;strokeColor=none;fillColor=none;align=center;verticalAlign=middle;whiteSpace=wrap;rounded=0;" vertex="1" parent="1">
          <mxGeometry x="370" y="530" width="60" height="30" as="geometry" />
        </mxCell>
        <mxCell id="fI0UlLMCyQehsWo7p1q2-6" value="(1,1)" style="text;html=1;strokeColor=none;fillColor=none;align=center;verticalAlign=middle;whiteSpace=wrap;rounded=0;" vertex="1" parent="1">
          <mxGeometry x="360" y="410" width="60" height="30" as="geometry" />
        </mxCell>
        <mxCell id="fI0UlLMCyQehsWo7p1q2-7" value="Sudi" style="rhombus;whiteSpace=wrap;html=1;fillColor=#e1d5e7;strokeColor=#9673a6;" vertex="1" parent="1">
          <mxGeometry x="130" y="330" width="80" height="80" as="geometry" />
        </mxCell>
        <mxCell id="fI0UlLMCyQehsWo7p1q2-8" value="" style="endArrow=none;html=1;rounded=0;exitX=1;exitY=0.5;exitDx=0;exitDy=0;" edge="1" parent="1" source="fI0UlLMCyQehsWo7p1q2-7">
          <mxGeometry width="50" height="50" relative="1" as="geometry">
            <mxPoint x="260" y="420" as="sourcePoint" />
            <mxPoint x="310" y="370" as="targetPoint" />
          </mxGeometry>
        </mxCell>
        <mxCell id="fI0UlLMCyQehsWo7p1q2-9" value="Sudac" style="rounded=0;whiteSpace=wrap;html=1;fillColor=#f8cecc;strokeColor=#b85450;" vertex="1" parent="1">
          <mxGeometry x="120" y="470" width="100" height="40" as="geometry" />
        </mxCell>
        <mxCell id="fI0UlLMCyQehsWo7p1q2-10" value="(1,N)" style="text;html=1;strokeColor=none;fillColor=none;align=center;verticalAlign=middle;whiteSpace=wrap;rounded=0;" vertex="1" parent="1">
          <mxGeometry x="220" y="370" width="60" height="30" as="geometry" />
        </mxCell>
        <mxCell id="fI0UlLMCyQehsWo7p1q2-11" value="(1,N)" style="text;html=1;align=center;verticalAlign=middle;resizable=0;points=[];autosize=1;strokeColor=none;fillColor=none;" vertex="1" parent="1">
          <mxGeometry x="175" y="420" width="50" height="30" as="geometry" />
        </mxCell>
        <mxCell id="fI0UlLMCyQehsWo7p1q2-12" value="Igra" style="rhombus;whiteSpace=wrap;html=1;fillColor=#e1d5e7;strokeColor=#9673a6;" vertex="1" parent="1">
          <mxGeometry x="530" y="330" width="80" height="80" as="geometry" />
        </mxCell>
        <mxCell id="fI0UlLMCyQehsWo7p1q2-13" value="" style="endArrow=none;html=1;rounded=0;exitX=1;exitY=0.5;exitDx=0;exitDy=0;entryX=0;entryY=0.5;entryDx=0;entryDy=0;" edge="1" parent="1" source="fI0UlLMCyQehsWo7p1q2-4" target="fI0UlLMCyQehsWo7p1q2-12">
          <mxGeometry width="50" height="50" relative="1" as="geometry">
            <mxPoint x="430" y="420" as="sourcePoint" />
            <mxPoint x="480" y="370" as="targetPoint" />
          </mxGeometry>
        </mxCell>
        <mxCell id="fI0UlLMCyQehsWo7p1q2-14" value="Igrač" style="rounded=0;whiteSpace=wrap;html=1;fillColor=#f8cecc;strokeColor=#b85450;" vertex="1" parent="1">
          <mxGeometry x="720" y="350" width="100" height="40" as="geometry" />
        </mxCell>
        <mxCell id="fI0UlLMCyQehsWo7p1q2-15" value="(1,N)" style="text;html=1;strokeColor=none;fillColor=none;align=center;verticalAlign=middle;whiteSpace=wrap;rounded=0;" vertex="1" parent="1">
          <mxGeometry x="640" y="380" width="60" height="30" as="geometry" />
        </mxCell>
        <mxCell id="fI0UlLMCyQehsWo7p1q2-16" value="(1,N)" style="text;html=1;strokeColor=none;fillColor=none;align=center;verticalAlign=middle;whiteSpace=wrap;rounded=0;" vertex="1" parent="1">
          <mxGeometry x="440" y="370" width="60" height="30" as="geometry" />
        </mxCell>
        <mxCell id="fI0UlLMCyQehsWo7p1q2-17" value="Sudjeluje" style="rhombus;whiteSpace=wrap;html=1;fillColor=#e1d5e7;strokeColor=#9673a6;" vertex="1" parent="1">
          <mxGeometry x="530" y="560" width="80" height="80" as="geometry" />
        </mxCell>
        <mxCell id="fI0UlLMCyQehsWo7p1q2-18" value="" style="endArrow=none;html=1;rounded=0;exitX=1;exitY=0.5;exitDx=0;exitDy=0;" edge="1" parent="1" source="fI0UlLMCyQehsWo7p1q2-2">
          <mxGeometry width="50" height="50" relative="1" as="geometry">
            <mxPoint x="480" y="650" as="sourcePoint" />
            <mxPoint x="530" y="600" as="targetPoint" />
          </mxGeometry>
        </mxCell>
        <mxCell id="fI0UlLMCyQehsWo7p1q2-19" value="(1,N)" style="text;html=1;strokeColor=none;fillColor=none;align=center;verticalAlign=middle;whiteSpace=wrap;rounded=0;" vertex="1" parent="1">
          <mxGeometry x="440" y="600" width="60" height="30" as="geometry" />
        </mxCell>
        <mxCell id="fI0UlLMCyQehsWo7p1q2-20" value="&lt;font style=&quot;font-size: 9px;&quot;&gt;&lt;u&gt;Personal ID&lt;/u&gt;&lt;/font&gt;" style="ellipse;whiteSpace=wrap;html=1;" vertex="1" parent="1">
          <mxGeometry x="140" y="585" width="60" height="30" as="geometry" />
        </mxCell>
        <mxCell id="fI0UlLMCyQehsWo7p1q2-21" value="" style="endArrow=none;html=1;rounded=0;entryX=0.5;entryY=0;entryDx=0;entryDy=0;" edge="1" parent="1" target="fI0UlLMCyQehsWo7p1q2-76">
          <mxGeometry width="50" height="50" relative="1" as="geometry">
            <mxPoint x="170" y="510" as="sourcePoint" />
            <mxPoint x="169.80999999999995" y="530" as="targetPoint" />
          </mxGeometry>
        </mxCell>
        <mxCell id="fI0UlLMCyQehsWo7p1q2-22" value="&lt;font size=&quot;1&quot;&gt;&lt;u&gt;Name&lt;/u&gt;&lt;/font&gt;" style="ellipse;whiteSpace=wrap;html=1;" vertex="1" parent="1">
          <mxGeometry x="330" y="735" width="60" height="30" as="geometry" />
        </mxCell>
        <mxCell id="fI0UlLMCyQehsWo7p1q2-23" value="&lt;font size=&quot;1&quot;&gt;&lt;span style=&quot;font-size: 9px;&quot;&gt;Starting date&lt;/span&gt;&lt;/font&gt;" style="ellipse;whiteSpace=wrap;html=1;" vertex="1" parent="1">
          <mxGeometry x="220" y="735" width="60" height="30" as="geometry" />
        </mxCell>
        <mxCell id="fI0UlLMCyQehsWo7p1q2-24" value="" style="endArrow=none;html=1;rounded=0;entryX=0.5;entryY=1;entryDx=0;entryDy=0;exitX=0.5;exitY=0;exitDx=0;exitDy=0;" edge="1" parent="1" source="fI0UlLMCyQehsWo7p1q2-77" target="fI0UlLMCyQehsWo7p1q2-2">
          <mxGeometry width="50" height="50" relative="1" as="geometry">
            <mxPoint x="310" y="660" as="sourcePoint" />
            <mxPoint x="360" y="610" as="targetPoint" />
          </mxGeometry>
        </mxCell>
        <mxCell id="fI0UlLMCyQehsWo7p1q2-25" value="" style="endArrow=none;html=1;rounded=0;entryX=0.5;entryY=1;entryDx=0;entryDy=0;exitX=0.5;exitY=0;exitDx=0;exitDy=0;" edge="1" parent="1" source="fI0UlLMCyQehsWo7p1q2-78" target="fI0UlLMCyQehsWo7p1q2-2">
          <mxGeometry width="50" height="50" relative="1" as="geometry">
            <mxPoint x="320" y="670" as="sourcePoint" />
            <mxPoint x="370" y="630" as="targetPoint" />
            <Array as="points">
              <mxPoint x="250" y="670" />
              <mxPoint x="360" y="670" />
            </Array>
          </mxGeometry>
        </mxCell>
        <mxCell id="fI0UlLMCyQehsWo7p1q2-26" value="&lt;font style=&quot;font-size: 9px;&quot;&gt;&lt;u&gt;Match ID&lt;/u&gt;&lt;/font&gt;" style="ellipse;whiteSpace=wrap;html=1;" vertex="1" parent="1">
          <mxGeometry x="200" y="215" width="60" height="30" as="geometry" />
        </mxCell>
        <mxCell id="fI0UlLMCyQehsWo7p1q2-41" value="" style="endArrow=none;html=1;rounded=0;entryX=0.5;entryY=1;entryDx=0;entryDy=0;exitX=0.5;exitY=0;exitDx=0;exitDy=0;" edge="1" parent="1" source="fI0UlLMCyQehsWo7p1q2-4" target="fI0UlLMCyQehsWo7p1q2-70">
          <mxGeometry width="50" height="50" relative="1" as="geometry">
            <mxPoint x="360" y="230" as="sourcePoint" />
            <mxPoint x="517.5" y="245" as="targetPoint" />
            <Array as="points">
              <mxPoint x="360" y="290" />
              <mxPoint x="500" y="290" />
            </Array>
          </mxGeometry>
        </mxCell>
        <mxCell id="fI0UlLMCyQehsWo7p1q2-44" value="" style="endArrow=none;html=1;rounded=0;" edge="1" parent="1">
          <mxGeometry width="50" height="50" relative="1" as="geometry">
            <mxPoint x="610" y="600" as="sourcePoint" />
            <mxPoint x="770" y="600" as="targetPoint" />
          </mxGeometry>
        </mxCell>
        <mxCell id="fI0UlLMCyQehsWo7p1q2-45" value="(1,1)" style="text;html=1;strokeColor=none;fillColor=none;align=center;verticalAlign=middle;whiteSpace=wrap;rounded=0;" vertex="1" parent="1">
          <mxGeometry x="630" y="600" width="60" height="30" as="geometry" />
        </mxCell>
        <mxCell id="fI0UlLMCyQehsWo7p1q2-46" value="&lt;font style=&quot;font-size: 9px;&quot;&gt;&lt;u&gt;Personal ID&lt;/u&gt;&lt;/font&gt;" style="ellipse;whiteSpace=wrap;html=1;" vertex="1" parent="1">
          <mxGeometry x="1040" y="440" width="60" height="30" as="geometry" />
        </mxCell>
        <mxCell id="fI0UlLMCyQehsWo7p1q2-48" value="&lt;font size=&quot;1&quot;&gt;&lt;span style=&quot;font-size: 9px;&quot;&gt;As serves&lt;/span&gt;&lt;/font&gt;" style="ellipse;whiteSpace=wrap;html=1;" vertex="1" parent="1">
          <mxGeometry x="1040" y="400" width="60" height="30" as="geometry" />
        </mxCell>
        <mxCell id="fI0UlLMCyQehsWo7p1q2-52" value="&lt;font size=&quot;1&quot;&gt;&lt;span style=&quot;font-size: 9px;&quot;&gt;Resault&lt;/span&gt;&lt;/font&gt;" style="ellipse;whiteSpace=wrap;html=1;" vertex="1" parent="1">
          <mxGeometry x="1040" y="355" width="60" height="30" as="geometry" />
        </mxCell>
        <mxCell id="fI0UlLMCyQehsWo7p1q2-53" value="" style="endArrow=none;html=1;rounded=0;entryX=0;entryY=0.5;entryDx=0;entryDy=0;exitX=1;exitY=0.5;exitDx=0;exitDy=0;" edge="1" parent="1" source="fI0UlLMCyQehsWo7p1q2-14" target="fI0UlLMCyQehsWo7p1q2-52">
          <mxGeometry width="50" height="50" relative="1" as="geometry">
            <mxPoint x="620" y="400" as="sourcePoint" />
            <mxPoint x="670" y="350" as="targetPoint" />
          </mxGeometry>
        </mxCell>
        <mxCell id="fI0UlLMCyQehsWo7p1q2-54" value="" style="endArrow=none;html=1;rounded=0;entryX=0;entryY=0.5;entryDx=0;entryDy=0;exitX=1;exitY=0.5;exitDx=0;exitDy=0;" edge="1" parent="1" source="fI0UlLMCyQehsWo7p1q2-14" target="fI0UlLMCyQehsWo7p1q2-48">
          <mxGeometry width="50" height="50" relative="1" as="geometry">
            <mxPoint x="620" y="400" as="sourcePoint" />
            <mxPoint x="670" y="350" as="targetPoint" />
            <Array as="points">
              <mxPoint x="920" y="370" />
              <mxPoint x="920" y="415" />
            </Array>
          </mxGeometry>
        </mxCell>
        <mxCell id="fI0UlLMCyQehsWo7p1q2-55" value="" style="endArrow=none;html=1;rounded=0;entryX=0.017;entryY=0.378;entryDx=0;entryDy=0;entryPerimeter=0;exitX=1;exitY=0.5;exitDx=0;exitDy=0;" edge="1" parent="1" source="fI0UlLMCyQehsWo7p1q2-14" target="fI0UlLMCyQehsWo7p1q2-46">
          <mxGeometry width="50" height="50" relative="1" as="geometry">
            <mxPoint x="620" y="400" as="sourcePoint" />
            <mxPoint x="800" y="160" as="targetPoint" />
            <Array as="points">
              <mxPoint x="910" y="370" />
              <mxPoint x="910" y="450" />
            </Array>
          </mxGeometry>
        </mxCell>
        <mxCell id="fI0UlLMCyQehsWo7p1q2-57" value="" style="endArrow=none;html=1;rounded=0;entryX=0;entryY=0.5;entryDx=0;entryDy=0;exitX=1;exitY=0.5;exitDx=0;exitDy=0;" edge="1" parent="1" source="fI0UlLMCyQehsWo7p1q2-14" target="fI0UlLMCyQehsWo7p1q2-62">
          <mxGeometry width="50" height="50" relative="1" as="geometry">
            <mxPoint x="620" y="400" as="sourcePoint" />
            <mxPoint x="1040.0000000000114" y="535" as="targetPoint" />
            <Array as="points">
              <mxPoint x="890" y="370" />
              <mxPoint x="890" y="495" />
            </Array>
          </mxGeometry>
        </mxCell>
        <mxCell id="fI0UlLMCyQehsWo7p1q2-58" value="" style="endArrow=none;html=1;rounded=0;entryX=0;entryY=0.5;entryDx=0;entryDy=0;exitX=1;exitY=0.5;exitDx=0;exitDy=0;" edge="1" parent="1" source="fI0UlLMCyQehsWo7p1q2-14" target="fI0UlLMCyQehsWo7p1q2-95">
          <mxGeometry width="50" height="50" relative="1" as="geometry">
            <mxPoint x="620" y="400" as="sourcePoint" />
            <mxPoint x="970" y="580" as="targetPoint" />
            <Array as="points">
              <mxPoint x="880" y="370" />
              <mxPoint x="880" y="535" />
            </Array>
          </mxGeometry>
        </mxCell>
        <mxCell id="fI0UlLMCyQehsWo7p1q2-59" value="" style="endArrow=none;html=1;rounded=0;entryX=0;entryY=0.5;entryDx=0;entryDy=0;exitX=1;exitY=0.5;exitDx=0;exitDy=0;" edge="1" parent="1" source="fI0UlLMCyQehsWo7p1q2-14" target="fI0UlLMCyQehsWo7p1q2-97">
          <mxGeometry width="50" height="50" relative="1" as="geometry">
            <mxPoint x="620" y="400" as="sourcePoint" />
            <mxPoint x="970" y="630" as="targetPoint" />
            <Array as="points">
              <mxPoint x="870" y="370" />
              <mxPoint x="870" y="575" />
            </Array>
          </mxGeometry>
        </mxCell>
        <mxCell id="fI0UlLMCyQehsWo7p1q2-62" value="&lt;font size=&quot;1&quot;&gt;&lt;span style=&quot;font-size: 9px;&quot;&gt;Poeni&lt;/span&gt;&lt;/font&gt;" style="ellipse;whiteSpace=wrap;html=1;fillColor=#fff2cc;strokeColor=#d6b656;" vertex="1" parent="1">
          <mxGeometry x="1040" y="480" width="60" height="30" as="geometry" />
        </mxCell>
        <mxCell id="fI0UlLMCyQehsWo7p1q2-64" value="&lt;font style=&quot;font-size: 9px;&quot;&gt;&lt;u&gt;ID igrača&lt;/u&gt;&lt;/font&gt;" style="ellipse;whiteSpace=wrap;html=1;fillColor=#fff2cc;strokeColor=#d6b656;" vertex="1" parent="1">
          <mxGeometry x="1040" y="440" width="60" height="30" as="geometry" />
        </mxCell>
        <mxCell id="fI0UlLMCyQehsWo7p1q2-65" value="&lt;font size=&quot;1&quot;&gt;&lt;span style=&quot;font-size: 9px;&quot;&gt;As servisi&lt;/span&gt;&lt;/font&gt;" style="ellipse;whiteSpace=wrap;html=1;fillColor=#fff2cc;strokeColor=#d6b656;" vertex="1" parent="1">
          <mxGeometry x="1040" y="400" width="60" height="30" as="geometry" />
        </mxCell>
        <mxCell id="fI0UlLMCyQehsWo7p1q2-66" value="&lt;font size=&quot;1&quot;&gt;&lt;span style=&quot;font-size: 9px;&quot;&gt;Rezultat&lt;/span&gt;&lt;/font&gt;" style="ellipse;whiteSpace=wrap;html=1;fillColor=#fff2cc;strokeColor=#d6b656;" vertex="1" parent="1">
          <mxGeometry x="1040" y="355" width="60" height="30" as="geometry" />
        </mxCell>
        <mxCell id="fI0UlLMCyQehsWo7p1q2-67" value="&lt;font size=&quot;1&quot;&gt;&lt;span style=&quot;font-size: 9px;&quot;&gt;Vrijeme igre&lt;/span&gt;&lt;/font&gt;" style="ellipse;whiteSpace=wrap;html=1;fillColor=#fff2cc;strokeColor=#d6b656;" vertex="1" parent="1">
          <mxGeometry x="290" y="215" width="60" height="30" as="geometry" />
        </mxCell>
        <mxCell id="fI0UlLMCyQehsWo7p1q2-70" value="&lt;font size=&quot;1&quot;&gt;&lt;span style=&quot;font-size: 9px;&quot;&gt;Stadij&lt;/span&gt;&lt;/font&gt;" style="ellipse;whiteSpace=wrap;html=1;fillColor=#fff2cc;strokeColor=#d6b656;" vertex="1" parent="1">
          <mxGeometry x="470" y="215" width="60" height="30" as="geometry" />
        </mxCell>
        <mxCell id="fI0UlLMCyQehsWo7p1q2-71" value="&lt;font style=&quot;font-size: 9px;&quot;&gt;Podloga&lt;/font&gt;" style="ellipse;whiteSpace=wrap;html=1;fillColor=#fff2cc;strokeColor=#d6b656;" vertex="1" parent="1">
          <mxGeometry x="380" y="215" width="60" height="30" as="geometry" />
        </mxCell>
        <mxCell id="fI0UlLMCyQehsWo7p1q2-75" value="&lt;font style=&quot;font-size: 9px;&quot;&gt;&lt;u&gt;ID meča&lt;/u&gt;&lt;/font&gt;" style="ellipse;whiteSpace=wrap;html=1;fillColor=#fff2cc;strokeColor=#d6b656;" vertex="1" parent="1">
          <mxGeometry x="200" y="215" width="60" height="30" as="geometry" />
        </mxCell>
        <mxCell id="fI0UlLMCyQehsWo7p1q2-76" value="&lt;font style=&quot;font-size: 9px;&quot;&gt;&lt;u&gt;ID Suca&lt;/u&gt;&lt;/font&gt;" style="ellipse;whiteSpace=wrap;html=1;fillColor=#fff2cc;strokeColor=#d6b656;" vertex="1" parent="1">
          <mxGeometry x="140" y="585" width="60" height="30" as="geometry" />
        </mxCell>
        <mxCell id="fI0UlLMCyQehsWo7p1q2-77" value="&lt;font size=&quot;1&quot;&gt;&lt;u&gt;Ime turnira&lt;/u&gt;&lt;/font&gt;" style="ellipse;whiteSpace=wrap;html=1;fillColor=#fff2cc;strokeColor=#d6b656;" vertex="1" parent="1">
          <mxGeometry x="320" y="730" width="80" height="40" as="geometry" />
        </mxCell>
        <mxCell id="fI0UlLMCyQehsWo7p1q2-78" value="&lt;font size=&quot;1&quot;&gt;Datum početka&lt;/font&gt;" style="ellipse;whiteSpace=wrap;html=1;fillColor=#fff2cc;strokeColor=#d6b656;" vertex="1" parent="1">
          <mxGeometry x="210" y="730" width="80" height="40" as="geometry" />
        </mxCell>
        <mxCell id="fI0UlLMCyQehsWo7p1q2-79" value="" style="endArrow=none;html=1;rounded=0;entryX=0;entryY=0.5;entryDx=0;entryDy=0;" edge="1" parent="1" target="fI0UlLMCyQehsWo7p1q2-14">
          <mxGeometry width="50" height="50" relative="1" as="geometry">
            <mxPoint x="610" y="370" as="sourcePoint" />
            <mxPoint x="660" y="320" as="targetPoint" />
          </mxGeometry>
        </mxCell>
        <mxCell id="fI0UlLMCyQehsWo7p1q2-80" value="" style="endArrow=none;html=1;rounded=0;entryX=0.5;entryY=1;entryDx=0;entryDy=0;" edge="1" parent="1" target="fI0UlLMCyQehsWo7p1q2-7">
          <mxGeometry width="50" height="50" relative="1" as="geometry">
            <mxPoint x="170" y="470" as="sourcePoint" />
            <mxPoint x="220" y="420" as="targetPoint" />
          </mxGeometry>
        </mxCell>
        <mxCell id="fI0UlLMCyQehsWo7p1q2-81" value="" style="endArrow=none;html=1;rounded=0;entryX=0.5;entryY=1;entryDx=0;entryDy=0;" edge="1" parent="1" target="fI0UlLMCyQehsWo7p1q2-4">
          <mxGeometry width="50" height="50" relative="1" as="geometry">
            <mxPoint x="360" y="450" as="sourcePoint" />
            <mxPoint x="410" y="400" as="targetPoint" />
          </mxGeometry>
        </mxCell>
        <mxCell id="fI0UlLMCyQehsWo7p1q2-82" value="" style="endArrow=none;html=1;rounded=0;entryX=0.5;entryY=1;entryDx=0;entryDy=0;" edge="1" parent="1" target="fI0UlLMCyQehsWo7p1q2-14">
          <mxGeometry width="50" height="50" relative="1" as="geometry">
            <mxPoint x="770" y="600" as="sourcePoint" />
            <mxPoint x="760" y="420" as="targetPoint" />
          </mxGeometry>
        </mxCell>
        <mxCell id="fI0UlLMCyQehsWo7p1q2-83" value="&lt;font size=&quot;1&quot;&gt;&lt;span style=&quot;font-size: 9px;&quot;&gt;Ime&lt;/span&gt;&lt;/font&gt;" style="ellipse;whiteSpace=wrap;html=1;fillColor=#fff2cc;strokeColor=#d6b656;" vertex="1" parent="1">
          <mxGeometry x="-10" y="585" width="60" height="30" as="geometry" />
        </mxCell>
        <mxCell id="fI0UlLMCyQehsWo7p1q2-84" value="&lt;font size=&quot;1&quot;&gt;&lt;span style=&quot;font-size: 9px;&quot;&gt;Prezime&lt;/span&gt;&lt;/font&gt;" style="ellipse;whiteSpace=wrap;html=1;fillColor=#fff2cc;strokeColor=#d6b656;" vertex="1" parent="1">
          <mxGeometry x="60" y="585" width="60" height="30" as="geometry" />
        </mxCell>
        <mxCell id="fI0UlLMCyQehsWo7p1q2-85" value="" style="endArrow=none;html=1;rounded=0;" edge="1" parent="1">
          <mxGeometry width="50" height="50" relative="1" as="geometry">
            <mxPoint x="90" y="585" as="sourcePoint" />
            <mxPoint x="170" y="540" as="targetPoint" />
            <Array as="points">
              <mxPoint x="90" y="540" />
            </Array>
          </mxGeometry>
        </mxCell>
        <mxCell id="fI0UlLMCyQehsWo7p1q2-86" value="" style="endArrow=none;html=1;rounded=0;exitX=0.5;exitY=0;exitDx=0;exitDy=0;" edge="1" parent="1" source="fI0UlLMCyQehsWo7p1q2-83">
          <mxGeometry width="50" height="50" relative="1" as="geometry">
            <mxPoint x="30" y="550" as="sourcePoint" />
            <mxPoint x="170" y="540" as="targetPoint" />
            <Array as="points">
              <mxPoint x="20" y="540" />
            </Array>
          </mxGeometry>
        </mxCell>
        <mxCell id="fI0UlLMCyQehsWo7p1q2-87" value="&lt;font size=&quot;1&quot;&gt;&lt;span style=&quot;font-size: 9px;&quot;&gt;Prezime&lt;/span&gt;&lt;/font&gt;" style="ellipse;whiteSpace=wrap;html=1;fillColor=#fff2cc;strokeColor=#d6b656;" vertex="1" parent="1">
          <mxGeometry x="1040" y="270" width="60" height="30" as="geometry" />
        </mxCell>
        <mxCell id="fI0UlLMCyQehsWo7p1q2-88" value="&lt;font size=&quot;1&quot;&gt;&lt;span style=&quot;font-size: 9px;&quot;&gt;Igrač&lt;/span&gt;&lt;/font&gt;" style="ellipse;whiteSpace=wrap;html=1;fillColor=#fff2cc;strokeColor=#d6b656;" vertex="1" parent="1">
          <mxGeometry x="1040" y="310" width="60" height="30" as="geometry" />
        </mxCell>
        <mxCell id="fI0UlLMCyQehsWo7p1q2-89" value="" style="endArrow=none;html=1;rounded=0;entryX=0;entryY=0.5;entryDx=0;entryDy=0;" edge="1" parent="1" target="fI0UlLMCyQehsWo7p1q2-87">
          <mxGeometry width="50" height="50" relative="1" as="geometry">
            <mxPoint x="930" y="370" as="sourcePoint" />
            <mxPoint x="1000" y="310" as="targetPoint" />
            <Array as="points">
              <mxPoint x="930" y="330" />
              <mxPoint x="960" y="330" />
              <mxPoint x="960" y="285" />
            </Array>
          </mxGeometry>
        </mxCell>
        <mxCell id="fI0UlLMCyQehsWo7p1q2-90" value="" style="endArrow=none;html=1;rounded=0;entryX=0;entryY=0.5;entryDx=0;entryDy=0;exitX=1;exitY=0.5;exitDx=0;exitDy=0;" edge="1" parent="1" source="fI0UlLMCyQehsWo7p1q2-14" target="fI0UlLMCyQehsWo7p1q2-88">
          <mxGeometry width="50" height="50" relative="1" as="geometry">
            <mxPoint x="980" y="360" as="sourcePoint" />
            <mxPoint x="1030" y="310" as="targetPoint" />
            <Array as="points">
              <mxPoint x="990" y="370" />
              <mxPoint x="990" y="330" />
            </Array>
          </mxGeometry>
        </mxCell>
        <mxCell id="fI0UlLMCyQehsWo7p1q2-92" value="" style="endArrow=none;html=1;rounded=0;entryX=0.5;entryY=1;entryDx=0;entryDy=0;exitX=0.5;exitY=0;exitDx=0;exitDy=0;" edge="1" parent="1" source="fI0UlLMCyQehsWo7p1q2-4" target="fI0UlLMCyQehsWo7p1q2-26">
          <mxGeometry width="50" height="50" relative="1" as="geometry">
            <mxPoint x="360" y="350" as="sourcePoint" />
            <mxPoint x="230" y="245" as="targetPoint" />
            <Array as="points">
              <mxPoint x="360" y="290" />
              <mxPoint x="230" y="290" />
            </Array>
          </mxGeometry>
        </mxCell>
        <mxCell id="fI0UlLMCyQehsWo7p1q2-93" value="" style="endArrow=none;html=1;rounded=0;" edge="1" parent="1">
          <mxGeometry width="50" height="50" relative="1" as="geometry">
            <mxPoint x="360" y="290" as="sourcePoint" />
            <mxPoint x="320" y="245" as="targetPoint" />
            <Array as="points">
              <mxPoint x="320" y="290" />
            </Array>
          </mxGeometry>
        </mxCell>
        <mxCell id="fI0UlLMCyQehsWo7p1q2-94" value="" style="endArrow=none;html=1;rounded=0;entryX=0.5;entryY=1;entryDx=0;entryDy=0;exitX=0.5;exitY=0;exitDx=0;exitDy=0;" edge="1" parent="1" source="fI0UlLMCyQehsWo7p1q2-4" target="fI0UlLMCyQehsWo7p1q2-71">
          <mxGeometry width="50" height="50" relative="1" as="geometry">
            <mxPoint x="360" y="350" as="sourcePoint" />
            <mxPoint x="410" y="245" as="targetPoint" />
            <Array as="points">
              <mxPoint x="360" y="290" />
              <mxPoint x="410" y="290" />
            </Array>
          </mxGeometry>
        </mxCell>
        <mxCell id="fI0UlLMCyQehsWo7p1q2-95" value="&lt;font size=&quot;1&quot;&gt;&lt;span style=&quot;font-size: 9px;&quot;&gt;Forsirane greške&lt;/span&gt;&lt;/font&gt;" style="ellipse;whiteSpace=wrap;html=1;fillColor=#fff2cc;strokeColor=#d6b656;" vertex="1" parent="1">
          <mxGeometry x="1040" y="520" width="60" height="30" as="geometry" />
        </mxCell>
        <mxCell id="fI0UlLMCyQehsWo7p1q2-97" value="&lt;font size=&quot;1&quot;&gt;&lt;span style=&quot;font-size: 9px;&quot;&gt;Neforsirane greške&lt;/span&gt;&lt;/font&gt;" style="ellipse;whiteSpace=wrap;html=1;fillColor=#fff2cc;strokeColor=#d6b656;" vertex="1" parent="1">
          <mxGeometry x="1040" y="560" width="60" height="30" as="geometry" />
        </mxCell>
        <mxCell id="fI0UlLMCyQehsWo7p1q2-98" value="&lt;font size=&quot;1&quot;&gt;&lt;span style=&quot;font-size: 9px;&quot;&gt;Uspješni&lt;br&gt;servisi&lt;br&gt;&lt;/span&gt;&lt;/font&gt;" style="ellipse;whiteSpace=wrap;html=1;fillColor=#fff2cc;strokeColor=#d6b656;" vertex="1" parent="1">
          <mxGeometry x="1040" y="600" width="60" height="30" as="geometry" />
        </mxCell>
        <mxCell id="fI0UlLMCyQehsWo7p1q2-100" value="&lt;font size=&quot;1&quot;&gt;&lt;span style=&quot;font-size: 9px;&quot;&gt;Nespješni&lt;br&gt;servisi&lt;br&gt;&lt;/span&gt;&lt;/font&gt;" style="ellipse;whiteSpace=wrap;html=1;fillColor=#fff2cc;strokeColor=#d6b656;" vertex="1" parent="1">
          <mxGeometry x="1040" y="640" width="60" height="30" as="geometry" />
        </mxCell>
        <mxCell id="fI0UlLMCyQehsWo7p1q2-101" value="" style="endArrow=none;html=1;rounded=0;exitX=0;exitY=0.5;exitDx=0;exitDy=0;" edge="1" parent="1" source="fI0UlLMCyQehsWo7p1q2-98">
          <mxGeometry width="50" height="50" relative="1" as="geometry">
            <mxPoint x="800" y="420" as="sourcePoint" />
            <mxPoint x="850" y="370" as="targetPoint" />
            <Array as="points">
              <mxPoint x="850" y="615" />
            </Array>
          </mxGeometry>
        </mxCell>
        <mxCell id="fI0UlLMCyQehsWo7p1q2-102" value="" style="endArrow=none;html=1;rounded=0;entryX=0;entryY=0.5;entryDx=0;entryDy=0;" edge="1" parent="1" target="fI0UlLMCyQehsWo7p1q2-100">
          <mxGeometry width="50" height="50" relative="1" as="geometry">
            <mxPoint x="840" y="370" as="sourcePoint" />
            <mxPoint x="990" y="660" as="targetPoint" />
            <Array as="points">
              <mxPoint x="840" y="655" />
            </Array>
          </mxGeometry>
        </mxCell>
      </root>
    </mxGraphModel>
  </diagram>
</mxfile>
